<mxfile host="app.diagrams.net" agent="Mozilla/5.0 (Windows NT 10.0; Win64; x64) AppleWebKit/537.36 (KHTML, like Gecko) Chrome/129.0.0.0 Safari/537.36" version="24.8.0">
  <diagram name="페이지-1" id="zVE2Lsy-wb5PUfXZnJQm">
    <mxGraphModel dx="2035" dy="1265" grid="1" gridSize="10" guides="1" tooltips="1" connect="1" arrows="1" fold="1" page="1" pageScale="1" pageWidth="850" pageHeight="1100" background="#ffffff" math="0" shadow="0">
      <root>
        <mxCell id="0" />
        <mxCell id="1" parent="0" />
        <mxCell id="0dkEWRMpdqEwMCPIq9Rx-1" value="사용자" style="shape=umlActor;verticalLabelPosition=bottom;verticalAlign=top;html=1;outlineConnect=0;" vertex="1" parent="1">
          <mxGeometry x="110" y="500" width="50" height="100" as="geometry" />
        </mxCell>
        <mxCell id="0dkEWRMpdqEwMCPIq9Rx-2" value="Compass" style="swimlane;whiteSpace=wrap;html=1;" vertex="1" parent="1">
          <mxGeometry x="307" y="180" width="237" height="740" as="geometry" />
        </mxCell>
        <mxCell id="0dkEWRMpdqEwMCPIq9Rx-3" value="로그인, 로그아웃" style="ellipse;whiteSpace=wrap;html=1;" vertex="1" parent="0dkEWRMpdqEwMCPIq9Rx-2">
          <mxGeometry x="63.5" y="660" width="110" height="60" as="geometry" />
        </mxCell>
        <mxCell id="0dkEWRMpdqEwMCPIq9Rx-5" value="마커 생성" style="ellipse;whiteSpace=wrap;html=1;" vertex="1" parent="0dkEWRMpdqEwMCPIq9Rx-2">
          <mxGeometry x="63.5" y="138" width="110" height="60" as="geometry" />
        </mxCell>
        <mxCell id="0dkEWRMpdqEwMCPIq9Rx-8" value="지도 보기" style="ellipse;whiteSpace=wrap;html=1;" vertex="1" parent="0dkEWRMpdqEwMCPIq9Rx-2">
          <mxGeometry x="63.5" y="40" width="110" height="60" as="geometry" />
        </mxCell>
        <mxCell id="0dkEWRMpdqEwMCPIq9Rx-10" value="" style="endArrow=classic;html=1;rounded=0;" edge="1" parent="0dkEWRMpdqEwMCPIq9Rx-2" source="0dkEWRMpdqEwMCPIq9Rx-5" target="0dkEWRMpdqEwMCPIq9Rx-8">
          <mxGeometry relative="1" as="geometry">
            <mxPoint x="80" y="250" as="sourcePoint" />
            <mxPoint x="180" y="250" as="targetPoint" />
          </mxGeometry>
        </mxCell>
        <mxCell id="0dkEWRMpdqEwMCPIq9Rx-11" value="표시" style="edgeLabel;resizable=0;html=1;;align=center;verticalAlign=middle;" connectable="0" vertex="1" parent="0dkEWRMpdqEwMCPIq9Rx-10">
          <mxGeometry relative="1" as="geometry" />
        </mxCell>
        <mxCell id="0dkEWRMpdqEwMCPIq9Rx-13" value="생성된 마커 확인" style="ellipse;whiteSpace=wrap;html=1;" vertex="1" parent="0dkEWRMpdqEwMCPIq9Rx-2">
          <mxGeometry x="63.5" y="238" width="110" height="60" as="geometry" />
        </mxCell>
        <mxCell id="0dkEWRMpdqEwMCPIq9Rx-19" value="일정 관리" style="ellipse;whiteSpace=wrap;html=1;" vertex="1" parent="0dkEWRMpdqEwMCPIq9Rx-2">
          <mxGeometry x="63.5" y="333" width="110" height="60" as="geometry" />
        </mxCell>
        <mxCell id="0dkEWRMpdqEwMCPIq9Rx-20" value="여행지 추천" style="ellipse;whiteSpace=wrap;html=1;" vertex="1" parent="0dkEWRMpdqEwMCPIq9Rx-2">
          <mxGeometry x="63.5" y="550" width="110" height="60" as="geometry" />
        </mxCell>
        <mxCell id="0dkEWRMpdqEwMCPIq9Rx-23" value="" style="endArrow=classic;html=1;rounded=0;" edge="1" parent="0dkEWRMpdqEwMCPIq9Rx-2" source="0dkEWRMpdqEwMCPIq9Rx-5" target="0dkEWRMpdqEwMCPIq9Rx-13">
          <mxGeometry relative="1" as="geometry">
            <mxPoint x="28" y="313" as="sourcePoint" />
            <mxPoint x="128" y="313" as="targetPoint" />
          </mxGeometry>
        </mxCell>
        <mxCell id="0dkEWRMpdqEwMCPIq9Rx-24" value="데이터 전송" style="edgeLabel;resizable=0;html=1;;align=center;verticalAlign=middle;" connectable="0" vertex="1" parent="0dkEWRMpdqEwMCPIq9Rx-23">
          <mxGeometry relative="1" as="geometry" />
        </mxCell>
        <mxCell id="0dkEWRMpdqEwMCPIq9Rx-25" value="일정 추가" style="ellipse;whiteSpace=wrap;html=1;" vertex="1" parent="0dkEWRMpdqEwMCPIq9Rx-2">
          <mxGeometry x="63.5" y="440" width="110" height="60" as="geometry" />
        </mxCell>
        <mxCell id="0dkEWRMpdqEwMCPIq9Rx-31" value="" style="endArrow=classic;html=1;rounded=0;" edge="1" parent="0dkEWRMpdqEwMCPIq9Rx-2" source="0dkEWRMpdqEwMCPIq9Rx-25" target="0dkEWRMpdqEwMCPIq9Rx-19">
          <mxGeometry relative="1" as="geometry">
            <mxPoint x="38" y="410" as="sourcePoint" />
            <mxPoint x="138" y="410" as="targetPoint" />
          </mxGeometry>
        </mxCell>
        <mxCell id="0dkEWRMpdqEwMCPIq9Rx-32" value="표시" style="edgeLabel;resizable=0;html=1;;align=center;verticalAlign=middle;" connectable="0" vertex="1" parent="0dkEWRMpdqEwMCPIq9Rx-31">
          <mxGeometry relative="1" as="geometry" />
        </mxCell>
        <mxCell id="0dkEWRMpdqEwMCPIq9Rx-9" value="" style="endArrow=none;html=1;rounded=0;" edge="1" parent="1" source="0dkEWRMpdqEwMCPIq9Rx-3" target="0dkEWRMpdqEwMCPIq9Rx-1">
          <mxGeometry width="50" height="50" relative="1" as="geometry">
            <mxPoint x="520" y="620" as="sourcePoint" />
            <mxPoint x="400" y="490" as="targetPoint" />
          </mxGeometry>
        </mxCell>
        <mxCell id="0dkEWRMpdqEwMCPIq9Rx-14" value="" style="endArrow=none;html=1;rounded=0;" edge="1" parent="1" source="0dkEWRMpdqEwMCPIq9Rx-1" target="0dkEWRMpdqEwMCPIq9Rx-13">
          <mxGeometry width="50" height="50" relative="1" as="geometry">
            <mxPoint x="580" y="540" as="sourcePoint" />
            <mxPoint x="630" y="490" as="targetPoint" />
          </mxGeometry>
        </mxCell>
        <mxCell id="0dkEWRMpdqEwMCPIq9Rx-15" value="" style="endArrow=none;html=1;rounded=0;" edge="1" parent="1" source="0dkEWRMpdqEwMCPIq9Rx-1" target="0dkEWRMpdqEwMCPIq9Rx-5">
          <mxGeometry width="50" height="50" relative="1" as="geometry">
            <mxPoint x="670" y="480" as="sourcePoint" />
            <mxPoint x="720" y="430" as="targetPoint" />
          </mxGeometry>
        </mxCell>
        <mxCell id="0dkEWRMpdqEwMCPIq9Rx-16" value="" style="endArrow=none;html=1;rounded=0;" edge="1" parent="1" source="0dkEWRMpdqEwMCPIq9Rx-1" target="0dkEWRMpdqEwMCPIq9Rx-8">
          <mxGeometry width="50" height="50" relative="1" as="geometry">
            <mxPoint x="290" y="360" as="sourcePoint" />
            <mxPoint x="720" y="430" as="targetPoint" />
          </mxGeometry>
        </mxCell>
        <mxCell id="0dkEWRMpdqEwMCPIq9Rx-21" value="" style="endArrow=none;html=1;rounded=0;" edge="1" parent="1" source="0dkEWRMpdqEwMCPIq9Rx-20" target="0dkEWRMpdqEwMCPIq9Rx-1">
          <mxGeometry width="50" height="50" relative="1" as="geometry">
            <mxPoint x="640" y="500" as="sourcePoint" />
            <mxPoint x="690" y="450" as="targetPoint" />
          </mxGeometry>
        </mxCell>
        <mxCell id="0dkEWRMpdqEwMCPIq9Rx-22" value="" style="endArrow=none;html=1;rounded=0;" edge="1" parent="1" source="0dkEWRMpdqEwMCPIq9Rx-19" target="0dkEWRMpdqEwMCPIq9Rx-1">
          <mxGeometry width="50" height="50" relative="1" as="geometry">
            <mxPoint x="640" y="500" as="sourcePoint" />
            <mxPoint x="690" y="450" as="targetPoint" />
          </mxGeometry>
        </mxCell>
        <mxCell id="0dkEWRMpdqEwMCPIq9Rx-26" value="" style="endArrow=none;html=1;rounded=0;" edge="1" parent="1" source="0dkEWRMpdqEwMCPIq9Rx-25" target="0dkEWRMpdqEwMCPIq9Rx-1">
          <mxGeometry width="50" height="50" relative="1" as="geometry">
            <mxPoint x="650" y="450" as="sourcePoint" />
            <mxPoint x="700" y="400" as="targetPoint" />
          </mxGeometry>
        </mxCell>
        <mxCell id="0dkEWRMpdqEwMCPIq9Rx-33" value="&lt;font style=&quot;font-size: 22px;&quot;&gt;use_case_diagram_Compass&lt;/font&gt;" style="text;html=1;align=center;verticalAlign=middle;whiteSpace=wrap;rounded=0;" vertex="1" parent="1">
          <mxGeometry width="350" height="90" as="geometry" />
        </mxCell>
      </root>
    </mxGraphModel>
  </diagram>
</mxfile>
